<?xml version="1.0" encoding="utf-8" standalone="no"?>
<!DOCTYPE svg PUBLIC "-//W3C//DTD SVG 1.1//EN"
  "http://www.w3.org/Graphics/SVG/1.1/DTD/svg11.dtd">
<!-- Created with matplotlib (http://matplotlib.org/) -->
<svg height="339pt" version="1.1" viewBox="0 0 478 339" width="478pt" xmlns="http://www.w3.org/2000/svg" xmlns:xlink="http://www.w3.org/1999/xlink">
 <defs>
  <style type="text/css">
*{stroke-linecap:butt;stroke-linejoin:round;}
  </style>
 </defs>
 <g id="figure_1">
  <g id="patch_1">
   <path d="
M0 339.855
L478.317 339.855
L478.317 0
L0 0
z
" style="fill:#ffffff;"/>
  </g>
  <g id="axes_1">
   <g id="patch_2">
    <path d="
M24.7172 318.673
L471.117 318.673
L471.117 11.7727
L24.7172 11.7727
z
" style="fill:#eaeaf2;"/>
   </g>
   <g id="matplotlib.axis_1">
    <g id="xtick_1">
     <g id="line2d_1">
      <path clip-path="url(#pa02b347c71)" d="
M34.8626 318.673
L34.8626 11.7727" style="fill:none;stroke:#ffffff;stroke-linecap:round;"/>
     </g>
     <g id="line2d_2">
      <defs>
       <path d="
M0 0
L0 0" id="m219da94a98" style="stroke:#262626;"/>
      </defs>
      <g>
       <use style="fill:#262626;stroke:#262626;" x="34.8626420455" xlink:href="#m219da94a98" y="318.67265625"/>
      </g>
     </g>
     <g id="line2d_3">
      <g>
       <use style="fill:#262626;stroke:#262626;" x="34.8626420455" xlink:href="#m219da94a98" y="11.77265625"/>
      </g>
     </g>
     <g id="text_1">
      <!-- C -->
      <defs>
       <path d="
M58.7969 25.0938
L68.2656 22.7031
Q65.2812 11.0312 57.5469 4.90625
Q49.8125 -1.21875 38.625 -1.21875
Q27.0469 -1.21875 19.7969 3.48438
Q12.5469 8.20312 8.76562 17.1406
Q4.98438 26.0781 4.98438 36.3281
Q4.98438 47.5156 9.25 55.8281
Q13.5312 64.1562 21.4062 68.4688
Q29.2969 72.7969 38.7656 72.7969
Q49.5156 72.7969 56.8281 67.3281
Q64.1562 61.8594 67.0469 51.9531
L57.7188 49.75
Q55.2188 57.5625 50.4844 61.125
Q45.75 64.7031 38.5781 64.7031
Q30.3281 64.7031 24.7812 60.7344
Q19.2344 56.7812 16.9844 50.1094
Q14.75 43.4531 14.75 36.375
Q14.75 27.25 17.4062 20.4375
Q20.0625 13.625 25.6719 10.25
Q31.2969 6.89062 37.8438 6.89062
Q45.7969 6.89062 51.3125 11.4688
Q56.8438 16.0625 58.7969 25.0938" id="ArialMT-43"/>
      </defs>
      <g style="fill:#262626;" transform="translate(37.4477982955 332.00078125)rotate(-90.0)scale(0.1 -0.1)">
       <use xlink:href="#ArialMT-43"/>
      </g>
     </g>
    </g>
    <g id="xtick_2">
     <g id="line2d_4">
      <path clip-path="url(#pa02b347c71)" d="
M55.1536 318.673
L55.1536 11.7727" style="fill:none;stroke:#ffffff;stroke-linecap:round;"/>
     </g>
     <g id="line2d_5">
      <g>
       <use style="fill:#262626;stroke:#262626;" x="55.1535511364" xlink:href="#m219da94a98" y="318.67265625"/>
      </g>
     </g>
     <g id="line2d_6">
      <g>
       <use style="fill:#262626;stroke:#262626;" x="55.1535511364" xlink:href="#m219da94a98" y="11.77265625"/>
      </g>
     </g>
     <g id="text_2">
      <!-- B -->
      <defs>
       <path d="
M7.32812 0
L7.32812 71.5781
L34.1875 71.5781
Q42.3906 71.5781 47.3438 69.4062
Q52.2969 67.2344 55.0938 62.7188
Q57.9062 58.2031 57.9062 53.2656
Q57.9062 48.6875 55.4219 44.625
Q52.9375 40.5781 47.9062 38.0938
Q54.3906 36.1875 57.875 31.5938
Q61.375 27 61.375 20.75
Q61.375 15.7188 59.25 11.3906
Q57.125 7.07812 54 4.73438
Q50.875 2.39062 46.1562 1.1875
Q41.4531 0 34.625 0
z

M16.7969 41.5
L32.2812 41.5
Q38.5781 41.5 41.3125 42.3281
Q44.9219 43.4062 46.75 45.8906
Q48.5781 48.3906 48.5781 52.1562
Q48.5781 55.7188 46.875 58.4219
Q45.1719 61.1406 41.9844 62.1406
Q38.8125 63.1406 31.1094 63.1406
L16.7969 63.1406
z

M16.7969 8.45312
L34.625 8.45312
Q39.2031 8.45312 41.0625 8.79688
Q44.3438 9.375 46.5312 10.7344
Q48.7344 12.1094 50.1406 14.7188
Q51.5625 17.3281 51.5625 20.75
Q51.5625 24.75 49.5156 27.7031
Q47.4688 30.6719 43.8281 31.8594
Q40.1875 33.0625 33.3438 33.0625
L16.7969 33.0625
z
" id="ArialMT-42"/>
      </defs>
      <g style="fill:#262626;" transform="translate(57.7387073864 331.07734375)rotate(-90.0)scale(0.1 -0.1)">
       <use xlink:href="#ArialMT-42"/>
      </g>
     </g>
    </g>
    <g id="xtick_3">
     <g id="line2d_7">
      <path clip-path="url(#pa02b347c71)" d="
M75.4445 318.673
L75.4445 11.7727" style="fill:none;stroke:#ffffff;stroke-linecap:round;"/>
     </g>
     <g id="line2d_8">
      <g>
       <use style="fill:#262626;stroke:#262626;" x="75.4444602273" xlink:href="#m219da94a98" y="318.67265625"/>
      </g>
     </g>
     <g id="line2d_9">
      <g>
       <use style="fill:#262626;stroke:#262626;" x="75.4444602273" xlink:href="#m219da94a98" y="11.77265625"/>
      </g>
     </g>
     <g id="text_3">
      <!-- E -->
      <defs>
       <path d="
M7.90625 0
L7.90625 71.5781
L59.6719 71.5781
L59.6719 63.1406
L17.3906 63.1406
L17.3906 41.2188
L56.9844 41.2188
L56.9844 32.8125
L17.3906 32.8125
L17.3906 8.45312
L61.3281 8.45312
L61.3281 0
z
" id="ArialMT-45"/>
      </defs>
      <g style="fill:#262626;" transform="translate(78.0296164773 331.01484375)rotate(-90.0)scale(0.1 -0.1)">
       <use xlink:href="#ArialMT-45"/>
      </g>
     </g>
    </g>
    <g id="xtick_4">
     <g id="line2d_10">
      <path clip-path="url(#pa02b347c71)" d="
M95.7354 318.673
L95.7354 11.7727" style="fill:none;stroke:#ffffff;stroke-linecap:round;"/>
     </g>
     <g id="line2d_11">
      <g>
       <use style="fill:#262626;stroke:#262626;" x="95.7353693182" xlink:href="#m219da94a98" y="318.67265625"/>
      </g>
     </g>
     <g id="line2d_12">
      <g>
       <use style="fill:#262626;stroke:#262626;" x="95.7353693182" xlink:href="#m219da94a98" y="11.77265625"/>
      </g>
     </g>
     <g id="text_4">
      <!-- D -->
      <defs>
       <path d="
M7.71875 0
L7.71875 71.5781
L32.375 71.5781
Q40.7188 71.5781 45.125 70.5625
Q51.2656 69.1406 55.6094 65.4375
Q61.2812 60.6406 64.0781 53.1875
Q66.8906 45.75 66.8906 36.1875
Q66.8906 28.0312 64.9844 21.7344
Q63.0938 15.4375 60.1094 11.2969
Q57.125 7.17188 53.5781 4.79688
Q50.0469 2.4375 45.0469 1.21875
Q40.0469 0 33.5469 0
z

M17.1875 8.45312
L32.4688 8.45312
Q39.5469 8.45312 43.5781 9.76562
Q47.6094 11.0781 50 13.4844
Q53.375 16.8438 55.25 22.5312
Q57.125 28.2188 57.125 36.3281
Q57.125 47.5625 53.4375 53.5938
Q49.75 59.625 44.4844 61.6719
Q40.6719 63.1406 32.2344 63.1406
L17.1875 63.1406
z
" id="ArialMT-44"/>
      </defs>
      <g style="fill:#262626;" transform="translate(98.3205255682 331.58984375)rotate(-90.0)scale(0.1 -0.1)">
       <use xlink:href="#ArialMT-44"/>
      </g>
     </g>
    </g>
    <g id="xtick_5">
     <g id="line2d_13">
      <path clip-path="url(#pa02b347c71)" d="
M116.026 318.673
L116.026 11.7727" style="fill:none;stroke:#ffffff;stroke-linecap:round;"/>
     </g>
     <g id="line2d_14">
      <g>
       <use style="fill:#262626;stroke:#262626;" x="116.026278409" xlink:href="#m219da94a98" y="318.67265625"/>
      </g>
     </g>
     <g id="line2d_15">
      <g>
       <use style="fill:#262626;stroke:#262626;" x="116.026278409" xlink:href="#m219da94a98" y="11.77265625"/>
      </g>
     </g>
     <g id="text_5">
      <!-- G -->
      <defs>
       <path d="
M41.2188 28.0781
L41.2188 36.4688
L71.5312 36.5312
L71.5312 9.96875
Q64.5469 4.39062 57.125 1.57812
Q49.7031 -1.21875 41.8906 -1.21875
Q31.3438 -1.21875 22.7188 3.29688
Q14.1094 7.8125 9.71875 16.3594
Q5.32812 24.9062 5.32812 35.4531
Q5.32812 45.9062 9.6875 54.9531
Q14.0625 64.0156 22.2656 68.4062
Q30.4688 72.7969 41.1562 72.7969
Q48.9219 72.7969 55.1875 70.2812
Q61.4688 67.7812 65.0312 63.2812
Q68.6094 58.7969 70.4531 51.5625
L61.9219 49.2188
Q60.2969 54.6875 57.9062 57.8125
Q55.5156 60.9375 51.0625 62.8125
Q46.625 64.7031 41.2188 64.7031
Q34.7188 64.7031 29.9844 62.7188
Q25.25 60.75 22.3438 57.5156
Q19.4375 54.2969 17.8281 50.4375
Q15.0938 43.7969 15.0938 36.0312
Q15.0938 26.4688 18.3906 20.0156
Q21.6875 13.5781 27.9844 10.4531
Q34.2812 7.32812 41.3594 7.32812
Q47.5156 7.32812 53.375 9.6875
Q59.2344 12.0625 62.25 14.75
L62.25 28.0781
z
" id="ArialMT-47"/>
      </defs>
      <g style="fill:#262626;" transform="translate(118.611434659 332.29296875)rotate(-90.0)scale(0.1 -0.1)">
       <use xlink:href="#ArialMT-47"/>
      </g>
     </g>
    </g>
    <g id="xtick_6">
     <g id="line2d_16">
      <path clip-path="url(#pa02b347c71)" d="
M136.317 318.673
L136.317 11.7727" style="fill:none;stroke:#ffffff;stroke-linecap:round;"/>
     </g>
     <g id="line2d_17">
      <g>
       <use style="fill:#262626;stroke:#262626;" x="136.3171875" xlink:href="#m219da94a98" y="318.67265625"/>
      </g>
     </g>
     <g id="line2d_18">
      <g>
       <use style="fill:#262626;stroke:#262626;" x="136.3171875" xlink:href="#m219da94a98" y="11.77265625"/>
      </g>
     </g>
     <g id="text_6">
      <!-- F -->
      <defs>
       <path d="
M8.20312 0
L8.20312 71.5781
L56.5 71.5781
L56.5 63.1406
L17.6719 63.1406
L17.6719 40.9688
L51.2656 40.9688
L51.2656 32.5156
L17.6719 32.5156
L17.6719 0
z
" id="ArialMT-46"/>
      </defs>
      <g style="fill:#262626;" transform="translate(138.90234375 330.50234375)rotate(-90.0)scale(0.1 -0.1)">
       <use xlink:href="#ArialMT-46"/>
      </g>
     </g>
    </g>
    <g id="xtick_7">
     <g id="line2d_19">
      <path clip-path="url(#pa02b347c71)" d="
M156.608 318.673
L156.608 11.7727" style="fill:none;stroke:#ffffff;stroke-linecap:round;"/>
     </g>
     <g id="line2d_20">
      <g>
       <use style="fill:#262626;stroke:#262626;" x="156.608096591" xlink:href="#m219da94a98" y="318.67265625"/>
      </g>
     </g>
     <g id="line2d_21">
      <g>
       <use style="fill:#262626;stroke:#262626;" x="156.608096591" xlink:href="#m219da94a98" y="11.77265625"/>
      </g>
     </g>
     <g id="text_7">
      <!-- I -->
      <defs>
       <path d="
M9.32812 0
L9.32812 71.5781
L18.7969 71.5781
L18.7969 0
z
" id="ArialMT-49"/>
      </defs>
      <g style="fill:#262626;" transform="translate(159.193252841 326.61953125)rotate(-90.0)scale(0.1 -0.1)">
       <use xlink:href="#ArialMT-49"/>
      </g>
     </g>
    </g>
    <g id="xtick_8">
     <g id="line2d_22">
      <path clip-path="url(#pa02b347c71)" d="
M176.899 318.673
L176.899 11.7727" style="fill:none;stroke:#ffffff;stroke-linecap:round;"/>
     </g>
     <g id="line2d_23">
      <g>
       <use style="fill:#262626;stroke:#262626;" x="176.899005682" xlink:href="#m219da94a98" y="318.67265625"/>
      </g>
     </g>
     <g id="line2d_24">
      <g>
       <use style="fill:#262626;stroke:#262626;" x="176.899005682" xlink:href="#m219da94a98" y="11.77265625"/>
      </g>
     </g>
     <g id="text_8">
      <!-- H -->
      <defs>
       <path d="
M8.01562 0
L8.01562 71.5781
L17.4844 71.5781
L17.4844 42.1875
L54.6875 42.1875
L54.6875 71.5781
L64.1562 71.5781
L64.1562 0
L54.6875 0
L54.6875 33.7344
L17.4844 33.7344
L17.4844 0
z
" id="ArialMT-48"/>
      </defs>
      <g style="fill:#262626;" transform="translate(179.484161932 331.28671875)rotate(-90.0)scale(0.1 -0.1)">
       <use xlink:href="#ArialMT-48"/>
      </g>
     </g>
    </g>
    <g id="xtick_9">
     <g id="line2d_25">
      <path clip-path="url(#pa02b347c71)" d="
M197.19 318.673
L197.19 11.7727" style="fill:none;stroke:#ffffff;stroke-linecap:round;"/>
     </g>
     <g id="line2d_26">
      <g>
       <use style="fill:#262626;stroke:#262626;" x="197.189914773" xlink:href="#m219da94a98" y="318.67265625"/>
      </g>
     </g>
     <g id="line2d_27">
      <g>
       <use style="fill:#262626;stroke:#262626;" x="197.189914773" xlink:href="#m219da94a98" y="11.77265625"/>
      </g>
     </g>
     <g id="text_9">
      <!-- K -->
      <defs>
       <path d="
M7.32812 0
L7.32812 71.5781
L16.7969 71.5781
L16.7969 36.0781
L52.3438 71.5781
L65.1875 71.5781
L35.1562 42.5781
L66.5 0
L54 0
L28.5156 36.2344
L16.7969 24.8125
L16.7969 0
z
" id="ArialMT-4b"/>
      </defs>
      <g style="fill:#262626;" transform="translate(199.775071023 331.58984375)rotate(-90.0)scale(0.1 -0.1)">
       <use xlink:href="#ArialMT-4b"/>
      </g>
     </g>
    </g>
    <g id="xtick_10">
     <g id="line2d_28">
      <path clip-path="url(#pa02b347c71)" d="
M217.481 318.673
L217.481 11.7727" style="fill:none;stroke:#ffffff;stroke-linecap:round;"/>
     </g>
     <g id="line2d_29">
      <g>
       <use style="fill:#262626;stroke:#262626;" x="217.480823864" xlink:href="#m219da94a98" y="318.67265625"/>
      </g>
     </g>
     <g id="line2d_30">
      <g>
       <use style="fill:#262626;stroke:#262626;" x="217.480823864" xlink:href="#m219da94a98" y="11.77265625"/>
      </g>
     </g>
     <g id="text_10">
      <!-- J -->
      <defs>
       <path d="
M2.875 20.3125
L11.4219 21.4844
Q11.7656 13.2812 14.5 10.25
Q17.2344 7.23438 22.0781 7.23438
Q25.6406 7.23438 28.2188 8.85938
Q30.8125 10.5 31.7812 13.2969
Q32.7656 16.1094 32.7656 22.2656
L32.7656 71.5781
L42.2344 71.5781
L42.2344 22.7969
Q42.2344 13.8125 40.0625 8.875
Q37.8906 3.95312 33.1719 1.35938
Q28.4688 -1.21875 22.125 -1.21875
Q12.7031 -1.21875 7.6875 4.20312
Q2.6875 9.625 2.875 20.3125" id="ArialMT-4a"/>
      </defs>
      <g style="fill:#262626;" transform="translate(220.065980114 329.62734375)rotate(-90.0)scale(0.1 -0.1)">
       <use xlink:href="#ArialMT-4a"/>
      </g>
     </g>
    </g>
    <g id="xtick_11">
     <g id="line2d_31">
      <path clip-path="url(#pa02b347c71)" d="
M237.772 318.673
L237.772 11.7727" style="fill:none;stroke:#ffffff;stroke-linecap:round;"/>
     </g>
     <g id="line2d_32">
      <g>
       <use style="fill:#262626;stroke:#262626;" x="237.771732955" xlink:href="#m219da94a98" y="318.67265625"/>
      </g>
     </g>
     <g id="line2d_33">
      <g>
       <use style="fill:#262626;stroke:#262626;" x="237.771732955" xlink:href="#m219da94a98" y="11.77265625"/>
      </g>
     </g>
     <g id="text_11">
      <!-- M -->
      <defs>
       <path d="
M7.42188 0
L7.42188 71.5781
L21.6875 71.5781
L38.625 20.9062
Q40.9688 13.8125 42.0469 10.2969
Q43.2656 14.2031 45.8438 21.7812
L62.9844 71.5781
L75.7344 71.5781
L75.7344 0
L66.6094 0
L66.6094 59.9062
L45.7969 0
L37.25 0
L16.5469 60.9375
L16.5469 0
z
" id="ArialMT-4d"/>
      </defs>
      <g style="fill:#262626;" transform="translate(240.356889205 332.50390625)rotate(-90.0)scale(0.1 -0.1)">
       <use xlink:href="#ArialMT-4d"/>
      </g>
     </g>
    </g>
    <g id="xtick_12">
     <g id="line2d_34">
      <path clip-path="url(#pa02b347c71)" d="
M258.063 318.673
L258.063 11.7727" style="fill:none;stroke:#ffffff;stroke-linecap:round;"/>
     </g>
     <g id="line2d_35">
      <g>
       <use style="fill:#262626;stroke:#262626;" x="258.062642045" xlink:href="#m219da94a98" y="318.67265625"/>
      </g>
     </g>
     <g id="line2d_36">
      <g>
       <use style="fill:#262626;stroke:#262626;" x="258.062642045" xlink:href="#m219da94a98" y="11.77265625"/>
      </g>
     </g>
     <g id="text_12">
      <!-- L -->
      <defs>
       <path d="
M7.32812 0
L7.32812 71.5781
L16.7969 71.5781
L16.7969 8.45312
L52.0469 8.45312
L52.0469 0
z
" id="ArialMT-4c"/>
      </defs>
      <g style="fill:#262626;" transform="translate(260.647798295 330.14453125)rotate(-90.0)scale(0.1 -0.1)">
       <use xlink:href="#ArialMT-4c"/>
      </g>
     </g>
    </g>
    <g id="xtick_13">
     <g id="line2d_37">
      <path clip-path="url(#pa02b347c71)" d="
M278.354 318.673
L278.354 11.7727" style="fill:none;stroke:#ffffff;stroke-linecap:round;"/>
     </g>
     <g id="line2d_38">
      <g>
       <use style="fill:#262626;stroke:#262626;" x="278.353551136" xlink:href="#m219da94a98" y="318.67265625"/>
      </g>
     </g>
     <g id="line2d_39">
      <g>
       <use style="fill:#262626;stroke:#262626;" x="278.353551136" xlink:href="#m219da94a98" y="11.77265625"/>
      </g>
     </g>
     <g id="text_13">
      <!-- O -->
      <defs>
       <path d="
M4.82812 34.8594
Q4.82812 52.6875 14.3906 62.7656
Q23.9688 72.8594 39.1094 72.8594
Q49.0312 72.8594 56.9844 68.1094
Q64.9375 63.375 69.1094 54.9062
Q73.2969 46.4375 73.2969 35.6875
Q73.2969 24.8125 68.8906 16.2188
Q64.5 7.625 56.4375 3.20312
Q48.3906 -1.21875 39.0625 -1.21875
Q28.9531 -1.21875 20.9844 3.65625
Q13.0312 8.54688 8.92188 16.9844
Q4.82812 25.4375 4.82812 34.8594
M14.5938 34.7188
Q14.5938 21.7812 21.5469 14.3281
Q28.5156 6.89062 39.0156 6.89062
Q49.7031 6.89062 56.6094 14.4062
Q63.5312 21.9219 63.5312 35.75
Q63.5312 44.4844 60.5781 51
Q57.625 57.5156 51.9219 61.1094
Q46.2344 64.7031 39.1562 64.7031
Q29.1094 64.7031 21.8438 57.7812
Q14.5938 50.875 14.5938 34.7188" id="ArialMT-4f"/>
      </defs>
      <g style="fill:#262626;" transform="translate(280.938707386 332.51953125)rotate(-90.0)scale(0.1 -0.1)">
       <use xlink:href="#ArialMT-4f"/>
      </g>
     </g>
    </g>
    <g id="xtick_14">
     <g id="line2d_40">
      <path clip-path="url(#pa02b347c71)" d="
M298.644 318.673
L298.644 11.7727" style="fill:none;stroke:#ffffff;stroke-linecap:round;"/>
     </g>
     <g id="line2d_41">
      <g>
       <use style="fill:#262626;stroke:#262626;" x="298.644460227" xlink:href="#m219da94a98" y="318.67265625"/>
      </g>
     </g>
     <g id="line2d_42">
      <g>
       <use style="fill:#262626;stroke:#262626;" x="298.644460227" xlink:href="#m219da94a98" y="11.77265625"/>
      </g>
     </g>
     <g id="text_14">
      <!-- N -->
      <defs>
       <path d="
M7.625 0
L7.625 71.5781
L17.3281 71.5781
L54.9375 15.375
L54.9375 71.5781
L64.0156 71.5781
L64.0156 0
L54.2969 0
L16.7031 56.25
L16.7031 0
z
" id="ArialMT-4e"/>
      </defs>
      <g style="fill:#262626;" transform="translate(301.229616477 331.31171875)rotate(-90.0)scale(0.1 -0.1)">
       <use xlink:href="#ArialMT-4e"/>
      </g>
     </g>
    </g>
    <g id="xtick_15">
     <g id="line2d_43">
      <path clip-path="url(#pa02b347c71)" d="
M318.935 318.673
L318.935 11.7727" style="fill:none;stroke:#ffffff;stroke-linecap:round;"/>
     </g>
     <g id="line2d_44">
      <g>
       <use style="fill:#262626;stroke:#262626;" x="318.935369318" xlink:href="#m219da94a98" y="318.67265625"/>
      </g>
     </g>
     <g id="line2d_45">
      <g>
       <use style="fill:#262626;stroke:#262626;" x="318.935369318" xlink:href="#m219da94a98" y="11.77265625"/>
      </g>
     </g>
     <g id="text_15">
      <!-- Q -->
      <defs>
       <path d="
M61.9688 7.67188
Q68.5625 3.125 74.125 1.03125
L71.3438 -5.5625
Q63.625 -2.78125 55.9531 3.21875
Q48 -1.21875 38.375 -1.21875
Q28.6562 -1.21875 20.75 3.46875
Q12.8438 8.15625 8.5625 16.6406
Q4.29688 25.1406 4.29688 35.7969
Q4.29688 46.3906 8.59375 55.0781
Q12.8906 63.7656 20.8281 68.3125
Q28.7656 72.8594 38.5781 72.8594
Q48.4844 72.8594 56.4375 68.1406
Q64.4062 63.4219 68.5781 54.9531
Q72.75 46.4844 72.75 35.8438
Q72.75 27 70.0625 19.9375
Q67.3906 12.8906 61.9688 7.67188
M41.1094 19.7812
Q49.3125 17.4844 54.6406 12.9375
Q62.9844 20.5625 62.9844 35.8438
Q62.9844 44.5312 60.0312 51.0156
Q57.0781 57.5156 51.3906 61.1094
Q45.7031 64.7031 38.625 64.7031
Q28.0312 64.7031 21.0469 57.4531
Q14.0625 50.2031 14.0625 35.7969
Q14.0625 21.8281 20.9688 14.3594
Q27.875 6.89062 38.625 6.89062
Q43.7031 6.89062 48.1875 8.79688
Q43.75 11.6719 38.8125 12.8906
z
" id="ArialMT-51"/>
      </defs>
      <g style="fill:#262626;" transform="translate(321.520525568 332.65546875)rotate(-90.0)scale(0.1 -0.1)">
       <use xlink:href="#ArialMT-51"/>
      </g>
     </g>
    </g>
    <g id="xtick_16">
     <g id="line2d_46">
      <path clip-path="url(#pa02b347c71)" d="
M339.226 318.673
L339.226 11.7727" style="fill:none;stroke:#ffffff;stroke-linecap:round;"/>
     </g>
     <g id="line2d_47">
      <g>
       <use style="fill:#262626;stroke:#262626;" x="339.226278409" xlink:href="#m219da94a98" y="318.67265625"/>
      </g>
     </g>
     <g id="line2d_48">
      <g>
       <use style="fill:#262626;stroke:#262626;" x="339.226278409" xlink:href="#m219da94a98" y="11.77265625"/>
      </g>
     </g>
     <g id="text_16">
      <!-- P -->
      <defs>
       <path d="
M7.71875 0
L7.71875 71.5781
L34.7188 71.5781
Q41.8438 71.5781 45.6094 70.9062
Q50.875 70.0156 54.4375 67.5469
Q58.0156 65.0938 60.1875 60.6406
Q62.3594 56.2031 62.3594 50.875
Q62.3594 41.75 56.5469 35.4219
Q50.7344 29.1094 35.5469 29.1094
L17.1875 29.1094
L17.1875 0
z

M17.1875 37.5469
L35.6875 37.5469
Q44.875 37.5469 48.7344 40.9688
Q52.5938 44.3906 52.5938 50.5938
Q52.5938 55.0781 50.3125 58.2656
Q48.0469 61.4688 44.3438 62.5
Q41.9375 63.1406 35.5 63.1406
L17.1875 63.1406
z
" id="ArialMT-50"/>
      </defs>
      <g style="fill:#262626;" transform="translate(341.811434659 331.13671875)rotate(-90.0)scale(0.1 -0.1)">
       <use xlink:href="#ArialMT-50"/>
      </g>
     </g>
    </g>
    <g id="xtick_17">
     <g id="line2d_49">
      <path clip-path="url(#pa02b347c71)" d="
M359.517 318.673
L359.517 11.7727" style="fill:none;stroke:#ffffff;stroke-linecap:round;"/>
     </g>
     <g id="line2d_50">
      <g>
       <use style="fill:#262626;stroke:#262626;" x="359.5171875" xlink:href="#m219da94a98" y="318.67265625"/>
      </g>
     </g>
     <g id="line2d_51">
      <g>
       <use style="fill:#262626;stroke:#262626;" x="359.5171875" xlink:href="#m219da94a98" y="11.77265625"/>
      </g>
     </g>
     <g id="text_17">
      <!-- R -->
      <defs>
       <path d="
M7.85938 0
L7.85938 71.5781
L39.5938 71.5781
Q49.1719 71.5781 54.1406 69.6406
Q59.125 67.7188 62.1094 62.8281
Q65.0938 57.9531 65.0938 52.0469
Q65.0938 44.4375 60.1562 39.2031
Q55.2188 33.9844 44.9219 32.5625
Q48.6875 30.7656 50.6406 29
Q54.7812 25.2031 58.5 19.4844
L70.9531 0
L59.0312 0
L49.5625 14.8906
Q45.4062 21.3438 42.7188 24.75
Q40.0469 28.1719 37.9219 29.5312
Q35.7969 30.9062 33.5938 31.4531
Q31.9844 31.7812 28.3281 31.7812
L17.3281 31.7812
L17.3281 0
z

M17.3281 39.9844
L37.7031 39.9844
Q44.1875 39.9844 47.8438 41.3281
Q51.5156 42.6719 53.4219 45.625
Q55.3281 48.5781 55.3281 52.0469
Q55.3281 57.125 51.6406 60.3906
Q47.9531 63.6719 39.9844 63.6719
L17.3281 63.6719
z
" id="ArialMT-52"/>
      </defs>
      <g style="fill:#262626;" transform="translate(362.10234375 331.98203125)rotate(-90.0)scale(0.1 -0.1)">
       <use xlink:href="#ArialMT-52"/>
      </g>
     </g>
    </g>
    <g id="xtick_18">
     <g id="line2d_52">
      <path clip-path="url(#pa02b347c71)" d="
M379.808 318.673
L379.808 11.7727" style="fill:none;stroke:#ffffff;stroke-linecap:round;"/>
     </g>
     <g id="line2d_53">
      <g>
       <use style="fill:#262626;stroke:#262626;" x="379.808096591" xlink:href="#m219da94a98" y="318.67265625"/>
      </g>
     </g>
     <g id="line2d_54">
      <g>
       <use style="fill:#262626;stroke:#262626;" x="379.808096591" xlink:href="#m219da94a98" y="11.77265625"/>
      </g>
     </g>
     <g id="text_18">
      <!-- U -->
      <defs>
       <path d="
M54.6875 71.5781
L64.1562 71.5781
L64.1562 30.2188
Q64.1562 19.4375 61.7188 13.0781
Q59.2812 6.73438 52.9062 2.75
Q46.5312 -1.21875 36.1875 -1.21875
Q26.125 -1.21875 19.7188 2.25
Q13.3281 5.71875 10.5938 12.2812
Q7.85938 18.8438 7.85938 30.2188
L7.85938 71.5781
L17.3281 71.5781
L17.3281 30.2812
Q17.3281 20.9531 19.0625 16.5312
Q20.7969 12.1094 25.0156 9.71875
Q29.25 7.32812 35.3594 7.32812
Q45.7969 7.32812 50.2344 12.0625
Q54.6875 16.7969 54.6875 30.2812
z
" id="ArialMT-55"/>
      </defs>
      <g style="fill:#262626;" transform="translate(382.393252841 331.30234375)rotate(-90.0)scale(0.1 -0.1)">
       <use xlink:href="#ArialMT-55"/>
      </g>
     </g>
    </g>
    <g id="xtick_19">
     <g id="line2d_55">
      <path clip-path="url(#pa02b347c71)" d="
M400.099 318.673
L400.099 11.7727" style="fill:none;stroke:#ffffff;stroke-linecap:round;"/>
     </g>
     <g id="line2d_56">
      <g>
       <use style="fill:#262626;stroke:#262626;" x="400.099005682" xlink:href="#m219da94a98" y="318.67265625"/>
      </g>
     </g>
     <g id="line2d_57">
      <g>
       <use style="fill:#262626;stroke:#262626;" x="400.099005682" xlink:href="#m219da94a98" y="11.77265625"/>
      </g>
     </g>
     <g id="text_19">
      <!-- T -->
      <defs>
       <path d="
M25.9219 0
L25.9219 63.1406
L2.34375 63.1406
L2.34375 71.5781
L59.0781 71.5781
L59.0781 63.1406
L35.4062 63.1406
L35.4062 0
z
" id="ArialMT-54"/>
      </defs>
      <g style="fill:#262626;" transform="translate(402.684161932 331.34609375)rotate(-90.0)scale(0.1 -0.1)">
       <use xlink:href="#ArialMT-54"/>
      </g>
     </g>
    </g>
    <g id="xtick_20">
     <g id="line2d_58">
      <path clip-path="url(#pa02b347c71)" d="
M420.39 318.673
L420.39 11.7727" style="fill:none;stroke:#ffffff;stroke-linecap:round;"/>
     </g>
     <g id="line2d_59">
      <g>
       <use style="fill:#262626;stroke:#262626;" x="420.389914773" xlink:href="#m219da94a98" y="318.67265625"/>
      </g>
     </g>
     <g id="line2d_60">
      <g>
       <use style="fill:#262626;stroke:#262626;" x="420.389914773" xlink:href="#m219da94a98" y="11.77265625"/>
      </g>
     </g>
     <g id="text_20">
      <!-- V -->
      <defs>
       <path d="
M28.1719 0
L0.4375 71.5781
L10.6875 71.5781
L29.2969 19.5781
Q31.5469 13.3281 33.0625 7.85938
Q34.7188 13.7188 36.9219 19.5781
L56.25 71.5781
L65.9219 71.5781
L37.8906 0
z
" id="ArialMT-56"/>
      </defs>
      <g style="fill:#262626;" transform="translate(422.975071023 332.22109375)rotate(-90.0)scale(0.1 -0.1)">
       <use xlink:href="#ArialMT-56"/>
      </g>
     </g>
    </g>
    <g id="xtick_21">
     <g id="line2d_61">
      <path clip-path="url(#pa02b347c71)" d="
M440.681 318.673
L440.681 11.7727" style="fill:none;stroke:#ffffff;stroke-linecap:round;"/>
     </g>
     <g id="line2d_62">
      <g>
       <use style="fill:#262626;stroke:#262626;" x="440.680823864" xlink:href="#m219da94a98" y="318.67265625"/>
      </g>
     </g>
     <g id="line2d_63">
      <g>
       <use style="fill:#262626;stroke:#262626;" x="440.680823864" xlink:href="#m219da94a98" y="11.77265625"/>
      </g>
     </g>
     <g id="text_21">
      <!-- Y -->
      <defs>
       <path d="
M27.875 0
L27.875 30.3281
L0.296875 71.5781
L11.8125 71.5781
L25.9219 50
Q29.8281 43.9531 33.2031 37.8906
Q36.4219 43.5 41.0156 50.5312
L54.8906 71.5781
L65.9219 71.5781
L37.3594 30.3281
L37.3594 0
z
" id="ArialMT-59"/>
      </defs>
      <g style="fill:#262626;" transform="translate(443.265980114 332.23515625)rotate(-90.0)scale(0.1 -0.1)">
       <use xlink:href="#ArialMT-59"/>
      </g>
     </g>
    </g>
    <g id="xtick_22">
     <g id="line2d_64">
      <path clip-path="url(#pa02b347c71)" d="
M460.972 318.673
L460.972 11.7727" style="fill:none;stroke:#ffffff;stroke-linecap:round;"/>
     </g>
     <g id="line2d_65">
      <g>
       <use style="fill:#262626;stroke:#262626;" x="460.971732955" xlink:href="#m219da94a98" y="318.67265625"/>
      </g>
     </g>
     <g id="line2d_66">
      <g>
       <use style="fill:#262626;stroke:#262626;" x="460.971732955" xlink:href="#m219da94a98" y="11.77265625"/>
      </g>
     </g>
     <g id="text_22">
      <!-- Z -->
      <defs>
       <path d="
M2 0
L2 8.79688
L38.6719 54.6406
Q42.5781 59.5156 46.0938 63.1406
L6.15625 63.1406
L6.15625 71.5781
L57.4219 71.5781
L57.4219 63.1406
L17.2344 13.4844
L12.8906 8.45312
L58.5938 8.45312
L58.5938 0
z
" id="ArialMT-5a"/>
      </defs>
      <g style="fill:#262626;" transform="translate(463.556889205 331.33203125)rotate(-90.0)scale(0.1 -0.1)">
       <use xlink:href="#ArialMT-5a"/>
      </g>
     </g>
    </g>
   </g>
   <g id="matplotlib.axis_2">
    <g id="ytick_1">
     <g id="line2d_67">
      <path clip-path="url(#pa02b347c71)" d="
M24.7172 318.673
L471.117 318.673" style="fill:none;stroke:#ffffff;stroke-linecap:round;"/>
     </g>
     <g id="line2d_68">
      <g>
       <use style="fill:#262626;stroke:#262626;" x="24.7171875" xlink:href="#m219da94a98" y="318.67265625"/>
      </g>
     </g>
     <g id="line2d_69">
      <g>
       <use style="fill:#262626;stroke:#262626;" x="471.1171875" xlink:href="#m219da94a98" y="318.67265625"/>
      </g>
     </g>
     <g id="text_23">
      <!-- 0 -->
      <defs>
       <path d="
M4.15625 35.2969
Q4.15625 48 6.76562 55.7344
Q9.375 63.4844 14.5156 67.6719
Q19.6719 71.875 27.4844 71.875
Q33.25 71.875 37.5938 69.5469
Q41.9375 67.2344 44.7656 62.8594
Q47.6094 58.5 49.2188 52.2188
Q50.8281 45.9531 50.8281 35.2969
Q50.8281 22.7031 48.2344 14.9688
Q45.6562 7.23438 40.5 3
Q35.3594 -1.21875 27.4844 -1.21875
Q17.1406 -1.21875 11.2344 6.20312
Q4.15625 15.1406 4.15625 35.2969
M13.1875 35.2969
Q13.1875 17.6719 17.3125 11.8281
Q21.4375 6 27.4844 6
Q33.5469 6 37.6719 11.8594
Q41.7969 17.7188 41.7969 35.2969
Q41.7969 52.9844 37.6719 58.7812
Q33.5469 64.5938 27.3906 64.5938
Q21.3438 64.5938 17.7188 59.4688
Q13.1875 52.9375 13.1875 35.2969" id="ArialMT-30"/>
      </defs>
      <g style="fill:#262626;" transform="translate(13.05 321.2578125)scale(0.1 -0.1)">
       <use xlink:href="#ArialMT-30"/>
      </g>
     </g>
    </g>
    <g id="ytick_2">
     <g id="line2d_70">
      <path clip-path="url(#pa02b347c71)" d="
M24.7172 267.523
L471.117 267.523" style="fill:none;stroke:#ffffff;stroke-linecap:round;"/>
     </g>
     <g id="line2d_71">
      <g>
       <use style="fill:#262626;stroke:#262626;" x="24.7171875" xlink:href="#m219da94a98" y="267.52265625"/>
      </g>
     </g>
     <g id="line2d_72">
      <g>
       <use style="fill:#262626;stroke:#262626;" x="471.1171875" xlink:href="#m219da94a98" y="267.52265625"/>
      </g>
     </g>
     <g id="text_24">
      <!-- 10 -->
      <defs>
       <path d="
M37.25 0
L28.4688 0
L28.4688 56
Q25.2969 52.9844 20.1406 49.9531
Q14.9844 46.9219 10.8906 45.4062
L10.8906 53.9062
Q18.2656 57.375 23.7812 62.2969
Q29.2969 67.2344 31.5938 71.875
L37.25 71.875
z
" id="ArialMT-31"/>
      </defs>
      <g style="fill:#262626;" transform="translate(8.1625 270.1078125)scale(0.1 -0.1)">
       <use xlink:href="#ArialMT-31"/>
       <use x="55.615234375" xlink:href="#ArialMT-30"/>
      </g>
     </g>
    </g>
    <g id="ytick_3">
     <g id="line2d_73">
      <path clip-path="url(#pa02b347c71)" d="
M24.7172 216.373
L471.117 216.373" style="fill:none;stroke:#ffffff;stroke-linecap:round;"/>
     </g>
     <g id="line2d_74">
      <g>
       <use style="fill:#262626;stroke:#262626;" x="24.7171875" xlink:href="#m219da94a98" y="216.37265625"/>
      </g>
     </g>
     <g id="line2d_75">
      <g>
       <use style="fill:#262626;stroke:#262626;" x="471.1171875" xlink:href="#m219da94a98" y="216.37265625"/>
      </g>
     </g>
     <g id="text_25">
      <!-- 20 -->
      <defs>
       <path d="
M50.3438 8.45312
L50.3438 0
L3.03125 0
Q2.9375 3.17188 4.04688 6.10938
Q5.85938 10.9375 9.82812 15.625
Q13.8125 20.3125 21.3438 26.4688
Q33.0156 36.0312 37.1094 41.625
Q41.2188 47.2188 41.2188 52.2031
Q41.2188 57.4219 37.4688 61
Q33.7344 64.5938 27.7344 64.5938
Q21.3906 64.5938 17.5781 60.7812
Q13.7656 56.9844 13.7188 50.25
L4.6875 51.1719
Q5.60938 61.2812 11.6562 66.5781
Q17.7188 71.875 27.9375 71.875
Q38.2344 71.875 44.2344 66.1562
Q50.25 60.4531 50.25 52
Q50.25 47.7031 48.4844 43.5469
Q46.7344 39.4062 42.6562 34.8125
Q38.5781 30.2188 29.1094 22.2188
Q21.1875 15.5781 18.9375 13.2031
Q16.7031 10.8438 15.2344 8.45312
z
" id="ArialMT-32"/>
      </defs>
      <g style="fill:#262626;" transform="translate(7.3671875 218.9578125)scale(0.1 -0.1)">
       <use xlink:href="#ArialMT-32"/>
       <use x="55.615234375" xlink:href="#ArialMT-30"/>
      </g>
     </g>
    </g>
    <g id="ytick_4">
     <g id="line2d_76">
      <path clip-path="url(#pa02b347c71)" d="
M24.7172 165.223
L471.117 165.223" style="fill:none;stroke:#ffffff;stroke-linecap:round;"/>
     </g>
     <g id="line2d_77">
      <g>
       <use style="fill:#262626;stroke:#262626;" x="24.7171875" xlink:href="#m219da94a98" y="165.22265625"/>
      </g>
     </g>
     <g id="line2d_78">
      <g>
       <use style="fill:#262626;stroke:#262626;" x="471.1171875" xlink:href="#m219da94a98" y="165.22265625"/>
      </g>
     </g>
     <g id="text_26">
      <!-- 30 -->
      <defs>
       <path d="
M4.20312 18.8906
L12.9844 20.0625
Q14.5 12.5938 18.1406 9.29688
Q21.7812 6 27 6
Q33.2031 6 37.4688 10.2969
Q41.75 14.5938 41.75 20.9531
Q41.75 27 37.7969 30.9219
Q33.8438 34.8594 27.7344 34.8594
Q25.25 34.8594 21.5312 33.8906
L22.5156 41.6094
Q23.3906 41.5 23.9219 41.5
Q29.5469 41.5 34.0312 44.4219
Q38.5312 47.3594 38.5312 53.4688
Q38.5312 58.2969 35.25 61.4688
Q31.9844 64.6562 26.8125 64.6562
Q21.6875 64.6562 18.2656 61.4219
Q14.8438 58.2031 13.875 51.7656
L5.07812 53.3281
Q6.6875 62.1562 12.3906 67.0156
Q18.1094 71.875 26.6094 71.875
Q32.4688 71.875 37.3906 69.3594
Q42.3281 66.8438 44.9375 62.5
Q47.5625 58.1562 47.5625 53.2656
Q47.5625 48.6406 45.0625 44.8281
Q42.5781 41.0156 37.7031 38.7656
Q44.0469 37.3125 47.5625 32.6875
Q51.0781 28.0781 51.0781 21.1406
Q51.0781 11.7656 44.2344 5.25
Q37.4062 -1.26562 26.9531 -1.26562
Q17.5312 -1.26562 11.2969 4.34375
Q5.07812 9.96875 4.20312 18.8906" id="ArialMT-33"/>
      </defs>
      <g style="fill:#262626;" transform="translate(7.49375 167.8078125)scale(0.1 -0.1)">
       <use xlink:href="#ArialMT-33"/>
       <use x="55.615234375" xlink:href="#ArialMT-30"/>
      </g>
     </g>
    </g>
    <g id="ytick_5">
     <g id="line2d_79">
      <path clip-path="url(#pa02b347c71)" d="
M24.7172 114.073
L471.117 114.073" style="fill:none;stroke:#ffffff;stroke-linecap:round;"/>
     </g>
     <g id="line2d_80">
      <g>
       <use style="fill:#262626;stroke:#262626;" x="24.7171875" xlink:href="#m219da94a98" y="114.07265625"/>
      </g>
     </g>
     <g id="line2d_81">
      <g>
       <use style="fill:#262626;stroke:#262626;" x="471.1171875" xlink:href="#m219da94a98" y="114.07265625"/>
      </g>
     </g>
     <g id="text_27">
      <!-- 40 -->
      <defs>
       <path d="
M32.3281 0
L32.3281 17.1406
L1.26562 17.1406
L1.26562 25.2031
L33.9375 71.5781
L41.1094 71.5781
L41.1094 25.2031
L50.7812 25.2031
L50.7812 17.1406
L41.1094 17.1406
L41.1094 0
z

M32.3281 25.2031
L32.3281 57.4688
L9.90625 25.2031
z
" id="ArialMT-34"/>
      </defs>
      <g style="fill:#262626;" transform="translate(7.2 116.6578125)scale(0.1 -0.1)">
       <use xlink:href="#ArialMT-34"/>
       <use x="55.615234375" xlink:href="#ArialMT-30"/>
      </g>
     </g>
    </g>
    <g id="ytick_6">
     <g id="line2d_82">
      <path clip-path="url(#pa02b347c71)" d="
M24.7172 62.9227
L471.117 62.9227" style="fill:none;stroke:#ffffff;stroke-linecap:round;"/>
     </g>
     <g id="line2d_83">
      <g>
       <use style="fill:#262626;stroke:#262626;" x="24.7171875" xlink:href="#m219da94a98" y="62.92265625"/>
      </g>
     </g>
     <g id="line2d_84">
      <g>
       <use style="fill:#262626;stroke:#262626;" x="471.1171875" xlink:href="#m219da94a98" y="62.92265625"/>
      </g>
     </g>
     <g id="text_28">
      <!-- 50 -->
      <defs>
       <path d="
M4.15625 18.75
L13.375 19.5312
Q14.4062 12.7969 18.1406 9.39062
Q21.875 6 27.1562 6
Q33.5 6 37.8906 10.7812
Q42.2812 15.5781 42.2812 23.4844
Q42.2812 31 38.0625 35.3438
Q33.8438 39.7031 27 39.7031
Q22.75 39.7031 19.3281 37.7656
Q15.9219 35.8438 13.9688 32.7656
L5.71875 33.8438
L12.6406 70.6094
L48.25 70.6094
L48.25 62.2031
L19.6719 62.2031
L15.8281 42.9688
Q22.2656 47.4688 29.3438 47.4688
Q38.7188 47.4688 45.1562 40.9688
Q51.6094 34.4688 51.6094 24.2656
Q51.6094 14.5469 45.9531 7.46875
Q39.0625 -1.21875 27.1562 -1.21875
Q17.3906 -1.21875 11.2031 4.25
Q5.03125 9.71875 4.15625 18.75" id="ArialMT-35"/>
      </defs>
      <g style="fill:#262626;" transform="translate(7.4890625 65.5078125)scale(0.1 -0.1)">
       <use xlink:href="#ArialMT-35"/>
       <use x="55.615234375" xlink:href="#ArialMT-30"/>
      </g>
     </g>
    </g>
    <g id="ytick_7">
     <g id="line2d_85">
      <path clip-path="url(#pa02b347c71)" d="
M24.7172 11.7727
L471.117 11.7727" style="fill:none;stroke:#ffffff;stroke-linecap:round;"/>
     </g>
     <g id="line2d_86">
      <g>
       <use style="fill:#262626;stroke:#262626;" x="24.7171875" xlink:href="#m219da94a98" y="11.77265625"/>
      </g>
     </g>
     <g id="line2d_87">
      <g>
       <use style="fill:#262626;stroke:#262626;" x="471.1171875" xlink:href="#m219da94a98" y="11.77265625"/>
      </g>
     </g>
     <g id="text_29">
      <!-- 60 -->
      <defs>
       <path d="
M49.75 54.0469
L41.0156 53.375
Q39.8438 58.5469 37.7031 60.8906
Q34.125 64.6562 28.9062 64.6562
Q24.7031 64.6562 21.5312 62.3125
Q17.3906 59.2812 14.9844 53.4688
Q12.5938 47.6562 12.5 36.9219
Q15.6719 41.75 20.2656 44.0938
Q24.8594 46.4375 29.8906 46.4375
Q38.6719 46.4375 44.8438 39.9688
Q51.0312 33.5 51.0312 23.25
Q51.0312 16.5 48.125 10.7188
Q45.2188 4.9375 40.1406 1.85938
Q35.0625 -1.21875 28.6094 -1.21875
Q17.625 -1.21875 10.6875 6.85938
Q3.76562 14.9375 3.76562 33.5
Q3.76562 54.25 11.4219 63.6719
Q18.1094 71.875 29.4375 71.875
Q37.8906 71.875 43.2812 67.1406
Q48.6875 62.4062 49.75 54.0469
M13.875 23.1875
Q13.875 18.6562 15.7969 14.5
Q17.7188 10.3594 21.1875 8.17188
Q24.6562 6 28.4688 6
Q34.0312 6 38.0312 10.4844
Q42.0469 14.9844 42.0469 22.7031
Q42.0469 30.125 38.0781 34.3906
Q34.125 38.6719 28.125 38.6719
Q22.1719 38.6719 18.0156 34.3906
Q13.875 30.125 13.875 23.1875" id="ArialMT-36"/>
      </defs>
      <g style="fill:#262626;" transform="translate(7.45 14.3578125)scale(0.1 -0.1)">
       <use xlink:href="#ArialMT-36"/>
       <use x="55.615234375" xlink:href="#ArialMT-30"/>
      </g>
     </g>
    </g>
   </g>
   <g id="patch_3">
    <path clip-path="url(#pa02b347c71)" d="
M29.7899 318.673
L39.9354 318.673
L39.9354 206.143
L29.7899 206.143
z
" style="fill:#4c72b0;stroke:#000000;stroke-linejoin:miter;stroke-width:0.3;"/>
   </g>
   <g id="patch_4">
    <path clip-path="url(#pa02b347c71)" d="
M50.0808 318.673
L60.2263 318.673
L60.2263 262.408
L50.0808 262.408
z
" style="fill:#4c72b0;stroke:#000000;stroke-linejoin:miter;stroke-width:0.3;"/>
   </g>
   <g id="patch_5">
    <path clip-path="url(#pa02b347c71)" d="
M70.3717 318.673
L80.5172 318.673
L80.5172 252.178
L70.3717 252.178
z
" style="fill:#4c72b0;stroke:#000000;stroke-linejoin:miter;stroke-width:0.3;"/>
   </g>
   <g id="patch_6">
    <path clip-path="url(#pa02b347c71)" d="
M90.6626 318.673
L100.808 318.673
L100.808 241.948
L90.6626 241.948
z
" style="fill:#4c72b0;stroke:#000000;stroke-linejoin:miter;stroke-width:0.3;"/>
   </g>
   <g id="patch_7">
    <path clip-path="url(#pa02b347c71)" d="
M110.954 318.673
L121.099 318.673
L121.099 185.683
L110.954 185.683
z
" style="fill:#4c72b0;stroke:#000000;stroke-linejoin:miter;stroke-width:0.3;"/>
   </g>
   <g id="patch_8">
    <path clip-path="url(#pa02b347c71)" d="
M131.244 318.673
L141.39 318.673
L141.39 47.5777
L131.244 47.5777
z
" style="fill:#4c72b0;stroke:#000000;stroke-linejoin:miter;stroke-width:0.3;"/>
   </g>
   <g id="patch_9">
    <path clip-path="url(#pa02b347c71)" d="
M151.535 318.673
L161.681 318.673
L161.681 149.878
L151.535 149.878
z
" style="fill:#4c72b0;stroke:#000000;stroke-linejoin:miter;stroke-width:0.3;"/>
   </g>
   <g id="patch_10">
    <path clip-path="url(#pa02b347c71)" d="
M171.826 318.673
L181.972 318.673
L181.972 267.523
L171.826 267.523
z
" style="fill:#4c72b0;stroke:#000000;stroke-linejoin:miter;stroke-width:0.3;"/>
   </g>
   <g id="patch_11">
    <path clip-path="url(#pa02b347c71)" d="
M192.117 318.673
L202.263 318.673
L202.263 282.868
L192.117 282.868
z
" style="fill:#4c72b0;stroke:#000000;stroke-linejoin:miter;stroke-width:0.3;"/>
   </g>
   <g id="patch_12">
    <path clip-path="url(#pa02b347c71)" d="
M212.408 318.673
L222.554 318.673
L222.554 201.028
L212.408 201.028
z
" style="fill:#4c72b0;stroke:#000000;stroke-linejoin:miter;stroke-width:0.3;"/>
   </g>
   <g id="patch_13">
    <path clip-path="url(#pa02b347c71)" d="
M232.699 318.673
L242.844 318.673
L242.844 165.223
L232.699 165.223
z
" style="fill:#4c72b0;stroke:#000000;stroke-linejoin:miter;stroke-width:0.3;"/>
   </g>
   <g id="patch_14">
    <path clip-path="url(#pa02b347c71)" d="
M252.99 318.673
L263.135 318.673
L263.135 241.948
L252.99 241.948
z
" style="fill:#4c72b0;stroke:#000000;stroke-linejoin:miter;stroke-width:0.3;"/>
   </g>
   <g id="patch_15">
    <path clip-path="url(#pa02b347c71)" d="
M273.281 318.673
L283.426 318.673
L283.426 257.293
L273.281 257.293
z
" style="fill:#4c72b0;stroke:#000000;stroke-linejoin:miter;stroke-width:0.3;"/>
   </g>
   <g id="patch_16">
    <path clip-path="url(#pa02b347c71)" d="
M293.572 318.673
L303.717 318.673
L303.717 267.523
L293.572 267.523
z
" style="fill:#4c72b0;stroke:#000000;stroke-linejoin:miter;stroke-width:0.3;"/>
   </g>
   <g id="patch_17">
    <path clip-path="url(#pa02b347c71)" d="
M313.863 318.673
L324.008 318.673
L324.008 262.408
L313.863 262.408
z
" style="fill:#4c72b0;stroke:#000000;stroke-linejoin:miter;stroke-width:0.3;"/>
   </g>
   <g id="patch_18">
    <path clip-path="url(#pa02b347c71)" d="
M334.154 318.673
L344.299 318.673
L344.299 267.523
L334.154 267.523
z
" style="fill:#4c72b0;stroke:#000000;stroke-linejoin:miter;stroke-width:0.3;"/>
   </g>
   <g id="patch_19">
    <path clip-path="url(#pa02b347c71)" d="
M354.444 318.673
L364.59 318.673
L364.59 293.098
L354.444 293.098
z
" style="fill:#4c72b0;stroke:#000000;stroke-linejoin:miter;stroke-width:0.3;"/>
   </g>
   <g id="patch_20">
    <path clip-path="url(#pa02b347c71)" d="
M374.735 318.673
L384.881 318.673
L384.881 175.453
L374.735 175.453
z
" style="fill:#4c72b0;stroke:#000000;stroke-linejoin:miter;stroke-width:0.3;"/>
   </g>
   <g id="patch_21">
    <path clip-path="url(#pa02b347c71)" d="
M395.026 318.673
L405.172 318.673
L405.172 282.868
L395.026 282.868
z
" style="fill:#4c72b0;stroke:#000000;stroke-linejoin:miter;stroke-width:0.3;"/>
   </g>
   <g id="patch_22">
    <path clip-path="url(#pa02b347c71)" d="
M415.317 318.673
L425.463 318.673
L425.463 139.648
L415.317 139.648
z
" style="fill:#4c72b0;stroke:#000000;stroke-linejoin:miter;stroke-width:0.3;"/>
   </g>
   <g id="patch_23">
    <path clip-path="url(#pa02b347c71)" d="
M435.608 318.673
L445.754 318.673
L445.754 313.558
L435.608 313.558
z
" style="fill:#4c72b0;stroke:#000000;stroke-linejoin:miter;stroke-width:0.3;"/>
   </g>
   <g id="patch_24">
    <path clip-path="url(#pa02b347c71)" d="
M455.899 318.673
L466.044 318.673
L466.044 124.303
L455.899 124.303
z
" style="fill:#4c72b0;stroke:#000000;stroke-linejoin:miter;stroke-width:0.3;"/>
   </g>
   <g id="patch_25">
    <path d="
M24.7172 11.7727
L471.117 11.7727" style="fill:none;"/>
   </g>
   <g id="patch_26">
    <path d="
M471.117 318.673
L471.117 11.7727" style="fill:none;"/>
   </g>
   <g id="patch_27">
    <path d="
M24.7172 318.673
L471.117 318.673" style="fill:none;"/>
   </g>
   <g id="patch_28">
    <path d="
M24.7172 318.673
L24.7172 11.7727" style="fill:none;"/>
   </g>
   <g id="legend_1">
    <g id="patch_29">
     <path d="
M429.45 27.9305
L449.45 27.9305
L449.45 20.9305
L429.45 20.9305
z
" style="fill:#4c72b0;stroke:#000000;stroke-linejoin:miter;stroke-width:0.3;"/>
    </g>
    <g id="text_30">
     <!-- 0 -->
     <g style="fill:#262626;" transform="translate(457.45 27.93046875)scale(0.1 -0.1)">
      <use xlink:href="#ArialMT-30"/>
     </g>
    </g>
   </g>
  </g>
 </g>
 <defs>
  <clipPath id="pa02b347c71">
   <rect height="306.9" width="446.4" x="24.7171875" y="11.77265625"/>
  </clipPath>
 </defs>
</svg>
